# xmcd CD database file
#
# Track frame offsets:
#	150
#	12224
#	25678
#	39027
#	51139
#	64024
#	76660
#	90241
#	104930
#	116801
#	127434
#	137567
#	150836
#	159431
#	173458
#
# Disc length: 2466 seconds
#
# Revision: 1
# Processed by: cddbd v1.5.1PL2 Copyright (c) Steve Scherf et al.
# Submitted via: CDex 1.50
#
DISCID=ac09a00f
DTITLE=Merle Travis - Nine Pound Hammer
DYEAR=2003
DGENRE=Country
TTITLE0=Nine Pound Hammer
TTITLE1=So Round So Firm So Fully Packed
TTITLE2=Will The Circle Be Unbroken
TTITLE3=No Vacancy
TTITLE4=Sixteen Tons
TTITLE5=Dark As A Dungeon
TTITLE6=Divorce Me C.O.D.
TTITLE7=You'll Be Lonesome Too
TTITLE8=Blues Stay Away From Me
TTITLE9=T For Texas
TTITLE10=Too Much Sugar For A Dime
TTITLE11=If We Never Meet Again
TTITLE12=I'll See You In My Dreams
TTITLE13=John Henry
TTITLE14=Muskrat
EXTD=YEAR: 2003
EXTT0=
EXTT1=
EXTT2=
EXTT3=
EXTT4=
EXTT5=
EXTT6=
EXTT7=
EXTT8=
EXTT9=
EXTT10=
EXTT11=
EXTT12=
EXTT13=
EXTT14=
PLAYORDER=
